<svg width="106" height="106" viewBox="0 0 106 106" fill="none" xmlns="http://www.w3.org/2000/svg">
<path d="M39.75 86.125C39.75 93.4456 32.33 99.375 23.1875 99.375C14.045 99.375 6.625 93.4456 6.625 86.125C6.625 78.8044 14.045 72.875 23.1875 72.875C32.33 72.875 39.75 78.811 39.75 86.125ZM99.375 72.875C99.375 80.1956 91.955 86.125 82.8125 86.125C73.67 86.125 66.25 80.1956 66.25 72.875C66.25 65.5544 73.67 59.625 82.8125 59.625C91.955 59.625 99.375 65.5544 99.375 72.875Z" fill="black"/>
<path fill-rule="evenodd" clip-rule="evenodd" d="M92.75 72.875V13.25H99.375V72.875H92.75ZM39.75 19.875V86.125H33.125V19.875H39.75Z" fill="black"/>
<path d="M33.125 19.2456C33.125 17.6033 33.735 16.0194 34.8367 14.8014C35.9385 13.5834 37.4534 12.818 39.0875 12.6538L92.0875 7.35377C93.0087 7.26118 93.9392 7.36272 94.8188 7.65184C95.6983 7.94096 96.5076 8.41125 97.1942 9.03235C97.8809 9.65346 98.4297 10.4116 98.8053 11.2579C99.181 12.1041 99.375 13.0198 99.375 13.9456V19.875L33.125 26.5V19.2456Z" fill="black"/>
</svg>
