<svg width="103" height="103" viewBox="0 0 103 103" fill="none" xmlns="http://www.w3.org/2000/svg">
<path d="M0 9.65625C0 8.80258 0.339117 7.98388 0.94275 7.38025C1.54638 6.77662 2.36508 6.4375 3.21875 6.4375H12.875C13.593 6.4377 14.2903 6.67795 14.856 7.12003C15.4218 7.56212 15.8234 8.18067 15.9972 8.87731L18.6044 19.3125H93.3438C93.8164 19.3129 94.2831 19.4174 94.7108 19.6186C95.1384 19.8198 95.5166 20.1126 95.8183 20.4764C96.12 20.8402 96.3379 21.266 96.4565 21.7235C96.5751 22.181 96.5915 22.659 96.5046 23.1235L86.8483 74.6235C86.7102 75.3611 86.3188 76.0273 85.7416 76.5069C85.1645 76.9864 84.4379 77.2493 83.6875 77.25H25.75C24.9996 77.2493 24.273 76.9864 23.6959 76.5069C23.1187 76.0273 22.7273 75.3611 22.5892 74.6235L12.9394 23.2201L10.3644 12.875H3.21875C2.36508 12.875 1.54638 12.5359 0.94275 11.9323C0.339117 11.3286 0 10.5099 0 9.65625ZM19.9691 25.75L28.4216 70.8125H81.0159L89.4684 25.75H19.9691ZM32.1875 77.25C28.7728 77.25 25.498 78.6065 23.0835 81.021C20.669 83.4355 19.3125 86.7103 19.3125 90.125C19.3125 93.5397 20.669 96.8145 23.0835 99.229C25.498 101.644 28.7728 103 32.1875 103C35.6022 103 38.877 101.644 41.2915 99.229C43.706 96.8145 45.0625 93.5397 45.0625 90.125C45.0625 86.7103 43.706 83.4355 41.2915 81.021C38.877 78.6065 35.6022 77.25 32.1875 77.25ZM77.25 77.25C73.8353 77.25 70.5605 78.6065 68.146 81.021C65.7315 83.4355 64.375 86.7103 64.375 90.125C64.375 93.5397 65.7315 96.8145 68.146 99.229C70.5605 101.644 73.8353 103 77.25 103C80.6647 103 83.9395 101.644 86.354 99.229C88.7685 96.8145 90.125 93.5397 90.125 90.125C90.125 86.7103 88.7685 83.4355 86.354 81.021C83.9395 78.6065 80.6647 77.25 77.25 77.25ZM32.1875 83.6875C33.8948 83.6875 35.5322 84.3657 36.7395 85.573C37.9468 86.7803 38.625 88.4177 38.625 90.125C38.625 91.8323 37.9468 93.4697 36.7395 94.677C35.5322 95.8843 33.8948 96.5625 32.1875 96.5625C30.4802 96.5625 28.8428 95.8843 27.6355 94.677C26.4282 93.4697 25.75 91.8323 25.75 90.125C25.75 88.4177 26.4282 86.7803 27.6355 85.573C28.8428 84.3657 30.4802 83.6875 32.1875 83.6875ZM77.25 83.6875C78.9573 83.6875 80.5947 84.3657 81.802 85.573C83.0093 86.7803 83.6875 88.4177 83.6875 90.125C83.6875 91.8323 83.0093 93.4697 81.802 94.677C80.5947 95.8843 78.9573 96.5625 77.25 96.5625C75.5427 96.5625 73.9053 95.8843 72.698 94.677C71.4907 93.4697 70.8125 91.8323 70.8125 90.125C70.8125 88.4177 71.4907 86.7803 72.698 85.573C73.9053 84.3657 75.5427 83.6875 77.25 83.6875Z" fill="black"/>
</svg>
