<svg width="299" height="89" viewBox="0 0 299 89" fill="none" xmlns="http://www.w3.org/2000/svg">
<g clip-path="url(#clip0_81_101)">
<path d="M77.0222 88.289C99.4678 88.289 117.664 68.5249 117.664 44.1445C117.664 19.7642 99.4678 0 77.0222 0C54.5766 0 36.3809 19.7642 36.3809 44.1445C36.3809 68.5249 54.5766 88.289 77.0222 88.289Z" fill="white" stroke="white" stroke-width="0.65" stroke-miterlimit="10"/>
<path d="M42.9613 24.0864H-10.0005V25.7992H42.9613V24.0864Z" fill="white" stroke="white" stroke-width="0.65" stroke-miterlimit="10"/>
<path d="M43.5813 31.1748H-9.73047V32.8876H43.5813V31.1748Z" fill="white" stroke="white" stroke-width="0.66" stroke-miterlimit="10"/>
<path d="M43.3812 38.7798H-9.54053V40.4926H43.3812V38.7798Z" fill="white" stroke="white" stroke-width="0.65" stroke-miterlimit="10"/>
<path d="M43.5811 46.0835H-9.45068V47.7963H43.5811V46.0835Z" fill="white" stroke="white" stroke-width="0.65" stroke-miterlimit="10"/>
<path d="M43.3011 53.3223H-9.66064V55.035H43.3011V53.3223Z" fill="white" stroke="white" stroke-width="0.65" stroke-miterlimit="10"/>
<path d="M43.2313 60.5508H-9.73047V62.2636H43.2313V60.5508Z" fill="white" stroke="white" stroke-width="0.65" stroke-miterlimit="10"/>
<path d="M126.114 23.8604H112.333V25.8748H126.114V23.8604Z" fill="white" stroke="white" stroke-width="0.65" stroke-miterlimit="10"/>
<path d="M125.694 31.2393H111.914V33.2537H125.694V31.2393Z" fill="white" stroke="white" stroke-width="0.65" stroke-miterlimit="10"/>
<path d="M125.554 38.252H111.773V40.2664H125.554V38.252Z" fill="white" stroke="white" stroke-width="0.65" stroke-miterlimit="10"/>
<path d="M125.764 53.0962H111.983V55.1106H125.764V53.0962Z" fill="white" stroke="white" stroke-width="0.65" stroke-miterlimit="10"/>
<path d="M125.764 60.3242H111.983V62.3386H125.764V60.3242Z" fill="white" stroke="white" stroke-width="0.65" stroke-miterlimit="10"/>
<path d="M125.834 46.0083H112.054V48.0227H125.834V46.0083Z" fill="white" stroke="white" stroke-width="0.65" stroke-miterlimit="10"/>
<path d="M39.4312 26.543L114.754 26.6938" stroke="#010101" stroke-width="0.65" stroke-miterlimit="10"/>
<path d="M36.1709 41.236L117.874 41.0098" stroke="#010101" stroke-width="0.65" stroke-miterlimit="10"/>
<path d="M36.311 48.626L117.944 48.8414" stroke="#010101" stroke-width="0.65" stroke-miterlimit="10"/>
<path d="M37.1411 33.5557L116.904 34.0081" stroke="#010101" stroke-width="0.65" stroke-miterlimit="10"/>
<path d="M39.5713 63.0928H114.204" stroke="#010101" stroke-width="0.65" stroke-miterlimit="10"/>
<path d="M37.3511 55.7783L116.554 56.0045" stroke="#010101" stroke-width="0.65" stroke-miterlimit="10"/>
<path d="M145.053 38.3531L143.421 39.2651V39.4571H151.485V42.6251H145.053V53.7131L143.421 54.6251V54.8171H152.157V58.0811H141.501V24.4811H152.157V27.7451H145.053V38.3531ZM156.173 58.0811V24.4811H161.405L167.357 49.1051L167.645 51.6491H168.605L168.317 49.1051V24.4811H171.869V58.0811H166.637L160.685 33.4571L160.397 30.9131H159.437L159.725 33.4571V58.0811H156.173ZM187.453 24.4811V27.7451H183.037V58.0811H179.485V27.7451H175.069V24.4811H187.453ZM201.617 58.0811L197.633 44.0171H194.225V58.0811H190.673V24.4811H197.969C202.049 24.4811 204.737 27.0731 204.737 30.9131V37.6331C204.737 40.4171 203.345 42.5291 200.993 43.4891L205.265 58.0811H201.617ZM192.593 40.7051V40.8971H197.729C199.793 40.8971 201.185 39.5051 201.185 37.4411V31.2011C201.185 29.1371 199.793 27.7451 197.729 27.7451H194.225V39.7931L192.593 40.7051ZM212.459 38.3531L210.827 39.2651V39.4571H218.891V42.6251H212.459V53.7131L210.827 54.6251V54.8171H219.563V58.0811H208.907V24.4811H219.563V27.7451H212.459V38.3531ZM241.828 24.4811V27.7451H237.412V58.0811H233.86V27.7451H229.444V24.4811H241.828ZM251.584 58.6571C247.36 58.6571 244.576 56.0171 244.576 51.9851V30.5291C244.576 26.5451 247.36 23.9051 251.584 23.9051C255.808 23.9051 258.592 26.5451 258.592 30.5291V51.9851C258.592 56.0171 255.808 58.6571 251.584 58.6571ZM251.584 55.3931C253.648 55.3931 255.04 54.0011 255.04 51.9371V30.6251C255.04 28.5611 253.648 27.1691 251.584 27.1691C249.52 27.1691 248.128 28.5611 248.128 30.6251V51.9371C248.128 54.0011 249.52 55.3931 251.584 55.3931ZM263.423 58.0811V24.4811H268.655L274.607 49.1051L274.895 51.6491H275.855L275.567 49.1051V24.4811H279.119V58.0811H273.887L267.935 33.4571L267.647 30.9131H266.687L266.975 33.4571V58.0811H263.423ZM290.335 58.6571C286.111 58.6571 283.279 56.0171 283.279 51.9851V46.8011H286.831V51.9371C286.831 54.0011 288.223 55.3931 290.335 55.3931C292.399 55.3931 293.791 54.0011 293.791 51.9371V47.7131C293.791 42.3851 283.375 42.2411 283.375 34.5131V30.4811C283.375 26.5451 286.159 23.9051 290.335 23.9051C294.511 23.9051 297.247 26.5451 297.247 30.4811V35.1371H293.695V30.5291C293.695 28.5131 292.351 27.1691 290.335 27.1691C288.271 27.1691 286.927 28.5131 286.927 30.5291V34.1771C286.927 39.4571 297.343 39.6491 297.343 47.3771V51.9851C297.343 56.0171 294.559 58.6571 290.335 58.6571Z" fill="white"/>
<path d="M145.053 38.3531L145.297 38.7895L145.553 38.6464V38.3531H145.053ZM143.421 39.2651L143.177 38.8286L142.921 38.9717V39.2651H143.421ZM143.421 39.4571H142.921V39.9571H143.421V39.4571ZM151.485 39.4571H151.985V38.9571H151.485V39.4571ZM151.485 42.6251V43.1251H151.985V42.6251H151.485ZM145.053 42.6251V42.1251H144.553V42.6251H145.053ZM145.053 53.7131L145.297 54.1495L145.553 54.0064V53.7131H145.053ZM143.421 54.6251L143.177 54.1886L142.921 54.3317V54.6251H143.421ZM143.421 54.8171H142.921V55.3171H143.421V54.8171ZM152.157 54.8171H152.657V54.3171H152.157V54.8171ZM152.157 58.0811V58.5811H152.657V58.0811H152.157ZM141.501 58.0811H141.001V58.5811H141.501V58.0811ZM141.501 24.4811V23.9811H141.001V24.4811H141.501ZM152.157 24.4811H152.657V23.9811H152.157V24.4811ZM152.157 27.7451V28.2451H152.657V27.7451H152.157ZM145.053 27.7451V27.2451H144.553V27.7451H145.053ZM145.053 38.3531L144.809 37.9166L143.177 38.8286L143.421 39.2651L143.665 39.7015L145.297 38.7895L145.053 38.3531ZM143.421 39.2651H142.921V39.4571H143.421H143.921V39.2651H143.421ZM143.421 39.4571V39.9571H151.485V39.4571V38.9571H143.421V39.4571ZM151.485 39.4571H150.985V42.6251H151.485H151.985V39.4571H151.485ZM151.485 42.6251V42.1251H145.053V42.6251V43.1251H151.485V42.6251ZM145.053 42.6251H144.553V53.7131H145.053H145.553V42.6251H145.053ZM145.053 53.7131L144.809 53.2766L143.177 54.1886L143.421 54.6251L143.665 55.0615L145.297 54.1495L145.053 53.7131ZM143.421 54.6251H142.921V54.8171H143.421H143.921V54.6251H143.421ZM143.421 54.8171V55.3171H152.157V54.8171V54.3171H143.421V54.8171ZM152.157 54.8171H151.657V58.0811H152.157H152.657V54.8171H152.157ZM152.157 58.0811V57.5811H141.501V58.0811V58.5811H152.157V58.0811ZM141.501 58.0811H142.001V24.4811H141.501H141.001V58.0811H141.501ZM141.501 24.4811V24.9811H152.157V24.4811V23.9811H141.501V24.4811ZM152.157 24.4811H151.657V27.7451H152.157H152.657V24.4811H152.157ZM152.157 27.7451V27.2451H145.053V27.7451V28.2451H152.157V27.7451ZM145.053 27.7451H144.553V38.3531H145.053H145.553V27.7451H145.053ZM156.173 58.0811H155.673V58.5811H156.173V58.0811ZM156.173 24.4811V23.9811H155.673V24.4811H156.173ZM161.405 24.4811L161.891 24.3636L161.798 23.9811H161.405V24.4811ZM167.357 49.1051L167.854 49.0488L167.85 49.0179L167.843 48.9876L167.357 49.1051ZM167.645 51.6491L167.148 51.7053L167.198 52.1491H167.645V51.6491ZM168.605 51.6491V52.1491H169.165L169.102 51.5928L168.605 51.6491ZM168.317 49.1051H167.817V49.1333L167.82 49.1613L168.317 49.1051ZM168.317 24.4811V23.9811H167.817V24.4811H168.317ZM171.869 24.4811H172.369V23.9811H171.869V24.4811ZM171.869 58.0811V58.5811H172.369V58.0811H171.869ZM166.637 58.0811L166.151 58.1985L166.243 58.5811H166.637V58.0811ZM160.685 33.4571L160.188 33.5133L160.191 33.5443L160.199 33.5745L160.685 33.4571ZM160.397 30.9131L160.894 30.8568L160.843 30.4131H160.397V30.9131ZM159.437 30.9131V30.4131H158.877L158.94 30.9693L159.437 30.9131ZM159.725 33.4571H160.225V33.4288L160.222 33.4008L159.725 33.4571ZM159.725 58.0811V58.5811H160.225V58.0811H159.725ZM156.173 58.0811H156.673V24.4811H156.173H155.673V58.0811H156.173ZM156.173 24.4811V24.9811H161.405V24.4811V23.9811H156.173V24.4811ZM161.405 24.4811L160.919 24.5985L166.871 49.2225L167.357 49.1051L167.843 48.9876L161.891 24.3636L161.405 24.4811ZM167.357 49.1051L166.86 49.1613L167.148 51.7053L167.645 51.6491L168.142 51.5928L167.854 49.0488L167.357 49.1051ZM167.645 51.6491V52.1491H168.605V51.6491V51.1491H167.645V51.6491ZM168.605 51.6491L169.102 51.5928L168.814 49.0488L168.317 49.1051L167.82 49.1613L168.108 51.7053L168.605 51.6491ZM168.317 49.1051H168.817V24.4811H168.317H167.817V49.1051H168.317ZM168.317 24.4811V24.9811H171.869V24.4811V23.9811H168.317V24.4811ZM171.869 24.4811H171.369V58.0811H171.869H172.369V24.4811H171.869ZM171.869 58.0811V57.5811H166.637V58.0811V58.5811H171.869V58.0811ZM166.637 58.0811L167.123 57.9636L161.171 33.3396L160.685 33.4571L160.199 33.5745L166.151 58.1985L166.637 58.0811ZM160.685 33.4571L161.182 33.4008L160.894 30.8568L160.397 30.9131L159.9 30.9693L160.188 33.5133L160.685 33.4571ZM160.397 30.9131V30.4131H159.437V30.9131V31.4131H160.397V30.9131ZM159.437 30.9131L158.94 30.9693L159.228 33.5133L159.725 33.4571L160.222 33.4008L159.934 30.8568L159.437 30.9131ZM159.725 33.4571H159.225V58.0811H159.725H160.225V33.4571H159.725ZM159.725 58.0811V57.5811H156.173V58.0811V58.5811H159.725V58.0811ZM187.453 24.4811H187.953V23.9811H187.453V24.4811ZM187.453 27.7451V28.2451H187.953V27.7451H187.453ZM183.037 27.7451V27.2451H182.537V27.7451H183.037ZM183.037 58.0811V58.5811H183.537V58.0811H183.037ZM179.485 58.0811H178.985V58.5811H179.485V58.0811ZM179.485 27.7451H179.985V27.2451H179.485V27.7451ZM175.069 27.7451H174.569V28.2451H175.069V27.7451ZM175.069 24.4811V23.9811H174.569V24.4811H175.069ZM187.453 24.4811H186.953V27.7451H187.453H187.953V24.4811H187.453ZM187.453 27.7451V27.2451H183.037V27.7451V28.2451H187.453V27.7451ZM183.037 27.7451H182.537V58.0811H183.037H183.537V27.7451H183.037ZM183.037 58.0811V57.5811H179.485V58.0811V58.5811H183.037V58.0811ZM179.485 58.0811H179.985V27.7451H179.485H178.985V58.0811H179.485ZM179.485 27.7451V27.2451H175.069V27.7451V28.2451H179.485V27.7451ZM175.069 27.7451H175.569V24.4811H175.069H174.569V27.7451H175.069ZM175.069 24.4811V24.9811H187.453V24.4811V23.9811H175.069V24.4811ZM201.617 58.0811L201.136 58.2173L201.239 58.5811H201.617V58.0811ZM197.633 44.0171L198.114 43.8808L198.011 43.5171H197.633V44.0171ZM194.225 44.0171V43.5171H193.725V44.0171H194.225ZM194.225 58.0811V58.5811H194.725V58.0811H194.225ZM190.673 58.0811H190.173V58.5811H190.673V58.0811ZM190.673 24.4811V23.9811H190.173V24.4811H190.673ZM200.993 43.4891L200.804 43.0261L200.386 43.1966L200.513 43.6295L200.993 43.4891ZM205.265 58.0811V58.5811H205.932L205.745 57.9406L205.265 58.0811ZM192.593 40.7051L192.349 40.2686L192.093 40.4117V40.7051H192.593ZM192.593 40.8971H192.093V41.3971H192.593V40.8971ZM194.225 27.7451V27.2451H193.725V27.7451H194.225ZM194.225 39.7931L194.469 40.2295L194.725 40.0864V39.7931H194.225ZM201.617 58.0811L202.098 57.9448L198.114 43.8808L197.633 44.0171L197.152 44.1533L201.136 58.2173L201.617 58.0811ZM197.633 44.0171V43.5171H194.225V44.0171V44.5171H197.633V44.0171ZM194.225 44.0171H193.725V58.0811H194.225H194.725V44.0171H194.225ZM194.225 58.0811V57.5811H190.673V58.0811V58.5811H194.225V58.0811ZM190.673 58.0811H191.173V24.4811H190.673H190.173V58.0811H190.673ZM190.673 24.4811V24.9811H197.969V24.4811V23.9811H190.673V24.4811ZM197.969 24.4811V24.9811C199.902 24.9811 201.463 25.5935 202.538 26.6188C203.61 27.6421 204.237 29.1141 204.237 30.9131H204.737H205.237C205.237 28.872 204.52 27.128 203.228 25.8953C201.938 24.6646 200.115 23.9811 197.969 23.9811V24.4811ZM204.737 30.9131H204.237V37.6331H204.737H205.237V30.9131H204.737ZM204.737 37.6331H204.237C204.237 40.2294 202.954 42.1486 200.804 43.0261L200.993 43.4891L201.182 43.952C203.736 42.9095 205.237 40.6047 205.237 37.6331H204.737ZM200.993 43.4891L200.513 43.6295L204.785 58.2215L205.265 58.0811L205.745 57.9406L201.473 43.3486L200.993 43.4891ZM205.265 58.0811V57.5811H201.617V58.0811V58.5811H205.265V58.0811ZM192.593 40.7051H192.093V40.8971H192.593H193.093V40.7051H192.593ZM192.593 40.8971V41.3971H197.729V40.8971V40.3971H192.593V40.8971ZM197.729 40.8971V41.3971C198.876 41.3971 199.873 41.0081 200.584 40.2966C201.296 39.5851 201.685 38.5881 201.685 37.4411H201.185H200.685C200.685 38.358 200.378 39.089 199.877 39.5895C199.377 40.09 198.646 40.3971 197.729 40.3971V40.8971ZM201.185 37.4411H201.685V31.2011H201.185H200.685V37.4411H201.185ZM201.185 31.2011H201.685C201.685 30.054 201.296 29.057 200.584 28.3455C199.873 27.634 198.876 27.2451 197.729 27.2451V27.7451V28.2451C198.646 28.2451 199.377 28.5521 199.877 29.0526C200.378 29.5531 200.685 30.2841 200.685 31.2011H201.185ZM197.729 27.7451V27.2451H194.225V27.7451V28.2451H197.729V27.7451ZM194.225 27.7451H193.725V39.7931H194.225H194.725V27.7451H194.225ZM194.225 39.7931L193.981 39.3566L192.349 40.2686L192.593 40.7051L192.837 41.1415L194.469 40.2295L194.225 39.7931ZM212.459 38.3531L212.703 38.7895L212.959 38.6464V38.3531H212.459ZM210.827 39.2651L210.583 38.8286L210.327 38.9717V39.2651H210.827ZM210.827 39.4571H210.327V39.9571H210.827V39.4571ZM218.891 39.4571H219.391V38.9571H218.891V39.4571ZM218.891 42.6251V43.1251H219.391V42.6251H218.891ZM212.459 42.6251V42.1251H211.959V42.6251H212.459ZM212.459 53.7131L212.703 54.1495L212.959 54.0064V53.7131H212.459ZM210.827 54.6251L210.583 54.1886L210.327 54.3317V54.6251H210.827ZM210.827 54.8171H210.327V55.3171H210.827V54.8171ZM219.563 54.8171H220.063V54.3171H219.563V54.8171ZM219.563 58.0811V58.5811H220.063V58.0811H219.563ZM208.907 58.0811H208.407V58.5811H208.907V58.0811ZM208.907 24.4811V23.9811H208.407V24.4811H208.907ZM219.563 24.4811H220.063V23.9811H219.563V24.4811ZM219.563 27.7451V28.2451H220.063V27.7451H219.563ZM212.459 27.7451V27.2451H211.959V27.7451H212.459ZM212.459 38.3531L212.215 37.9166L210.583 38.8286L210.827 39.2651L211.071 39.7015L212.703 38.7895L212.459 38.3531ZM210.827 39.2651H210.327V39.4571H210.827H211.327V39.2651H210.827ZM210.827 39.4571V39.9571H218.891V39.4571V38.9571H210.827V39.4571ZM218.891 39.4571H218.391V42.6251H218.891H219.391V39.4571H218.891ZM218.891 42.6251V42.1251H212.459V42.6251V43.1251H218.891V42.6251ZM212.459 42.6251H211.959V53.7131H212.459H212.959V42.6251H212.459ZM212.459 53.7131L212.215 53.2766L210.583 54.1886L210.827 54.6251L211.071 55.0615L212.703 54.1495L212.459 53.7131ZM210.827 54.6251H210.327V54.8171H210.827H211.327V54.6251H210.827ZM210.827 54.8171V55.3171H219.563V54.8171V54.3171H210.827V54.8171ZM219.563 54.8171H219.063V58.0811H219.563H220.063V54.8171H219.563ZM219.563 58.0811V57.5811H208.907V58.0811V58.5811H219.563V58.0811ZM208.907 58.0811H209.407V24.4811H208.907H208.407V58.0811H208.907ZM208.907 24.4811V24.9811H219.563V24.4811V23.9811H208.907V24.4811ZM219.563 24.4811H219.063V27.7451H219.563H220.063V24.4811H219.563ZM219.563 27.7451V27.2451H212.459V27.7451V28.2451H219.563V27.7451ZM212.459 27.7451H211.959V38.3531H212.459H212.959V27.7451H212.459ZM241.828 24.4811H242.328V23.9811H241.828V24.4811ZM241.828 27.7451V28.2451H242.328V27.7451H241.828ZM237.412 27.7451V27.2451H236.912V27.7451H237.412ZM237.412 58.0811V58.5811H237.912V58.0811H237.412ZM233.86 58.0811H233.36V58.5811H233.86V58.0811ZM233.86 27.7451H234.36V27.2451H233.86V27.7451ZM229.444 27.7451H228.944V28.2451H229.444V27.7451ZM229.444 24.4811V23.9811H228.944V24.4811H229.444ZM241.828 24.4811H241.328V27.7451H241.828H242.328V24.4811H241.828ZM241.828 27.7451V27.2451H237.412V27.7451V28.2451H241.828V27.7451ZM237.412 27.7451H236.912V58.0811H237.412H237.912V27.7451H237.412ZM237.412 58.0811V57.5811H233.86V58.0811V58.5811H237.412V58.0811ZM233.86 58.0811H234.36V27.7451H233.86H233.36V58.0811H233.86ZM233.86 27.7451V27.2451H229.444V27.7451V28.2451H233.86V27.7451ZM229.444 27.7451H229.944V24.4811H229.444H228.944V27.7451H229.444ZM229.444 24.4811V24.9811H241.828V24.4811V23.9811H229.444V24.4811ZM251.584 58.6571V58.1571C249.576 58.1571 247.955 57.5312 246.84 56.4707C245.727 55.4125 245.076 53.8816 245.076 51.9851H244.576H244.076C244.076 54.1205 244.816 55.9256 246.151 57.1954C247.484 58.4629 249.367 59.1571 251.584 59.1571V58.6571ZM244.576 51.9851H245.076V30.5291H244.576H244.076V51.9851H244.576ZM244.576 30.5291H245.076C245.076 28.6582 245.726 27.1392 246.839 26.0863C247.955 25.0309 249.576 24.4051 251.584 24.4051V23.9051V23.4051C249.367 23.4051 247.485 24.0992 246.152 25.3598C244.817 26.6229 244.076 28.4159 244.076 30.5291H244.576ZM251.584 23.9051V24.4051C253.591 24.4051 255.213 25.0309 256.328 26.0863C257.441 27.1392 258.092 28.6582 258.092 30.5291H258.592H259.092C259.092 28.4159 258.35 26.6229 257.015 25.3598C255.683 24.0992 253.8 23.4051 251.584 23.4051V23.9051ZM258.592 30.5291H258.092V51.9851H258.592H259.092V30.5291H258.592ZM258.592 51.9851H258.092C258.092 53.8816 257.44 55.4125 256.327 56.4707C255.212 57.5312 253.591 58.1571 251.584 58.1571V58.6571V59.1571C253.8 59.1571 255.683 58.4629 257.016 57.1954C258.351 55.9256 259.092 54.1205 259.092 51.9851H258.592ZM251.584 55.3931V55.8931C252.731 55.8931 253.728 55.5041 254.439 54.7926C255.151 54.0811 255.54 53.0841 255.54 51.9371H255.04H254.54C254.54 52.854 254.233 53.585 253.732 54.0855C253.232 54.586 252.501 54.8931 251.584 54.8931V55.3931ZM255.04 51.9371H255.54V30.6251H255.04H254.54V51.9371H255.04ZM255.04 30.6251H255.54C255.54 29.478 255.151 28.481 254.439 27.7695C253.728 27.058 252.731 26.6691 251.584 26.6691V27.1691V27.6691C252.501 27.6691 253.232 27.9761 253.732 28.4766C254.233 28.9771 254.54 29.7081 254.54 30.6251H255.04ZM251.584 27.1691V26.6691C250.437 26.6691 249.44 27.058 248.728 27.7695C248.017 28.481 247.628 29.478 247.628 30.6251H248.128H248.628C248.628 29.7081 248.935 28.9771 249.435 28.4766C249.936 27.9761 250.667 27.6691 251.584 27.6691V27.1691ZM248.128 30.6251H247.628V51.9371H248.128H248.628V30.6251H248.128ZM248.128 51.9371H247.628C247.628 53.0841 248.017 54.0811 248.728 54.7926C249.44 55.5041 250.437 55.8931 251.584 55.8931V55.3931V54.8931C250.667 54.8931 249.936 54.586 249.435 54.0855C248.935 53.585 248.628 52.854 248.628 51.9371H248.128ZM263.423 58.0811H262.923V58.5811H263.423V58.0811ZM263.423 24.4811V23.9811H262.923V24.4811H263.423ZM268.655 24.4811L269.141 24.3636L269.048 23.9811H268.655V24.4811ZM274.607 49.1051L275.104 49.0488L275.1 49.0179L275.093 48.9876L274.607 49.1051ZM274.895 51.6491L274.398 51.7053L274.448 52.1491H274.895V51.6491ZM275.855 51.6491V52.1491H276.415L276.352 51.5928L275.855 51.6491ZM275.567 49.1051H275.067V49.1333L275.07 49.1613L275.567 49.1051ZM275.567 24.4811V23.9811H275.067V24.4811H275.567ZM279.119 24.4811H279.619V23.9811H279.119V24.4811ZM279.119 58.0811V58.5811H279.619V58.0811H279.119ZM273.887 58.0811L273.401 58.1985L273.493 58.5811H273.887V58.0811ZM267.935 33.4571L267.438 33.5133L267.441 33.5443L267.449 33.5745L267.935 33.4571ZM267.647 30.9131L268.144 30.8568L268.093 30.4131H267.647V30.9131ZM266.687 30.9131V30.4131H266.127L266.19 30.9693L266.687 30.9131ZM266.975 33.4571H267.475V33.4288L267.472 33.4008L266.975 33.4571ZM266.975 58.0811V58.5811H267.475V58.0811H266.975ZM263.423 58.0811H263.923V24.4811H263.423H262.923V58.0811H263.423ZM263.423 24.4811V24.9811H268.655V24.4811V23.9811H263.423V24.4811ZM268.655 24.4811L268.169 24.5985L274.121 49.2225L274.607 49.1051L275.093 48.9876L269.141 24.3636L268.655 24.4811ZM274.607 49.1051L274.11 49.1613L274.398 51.7053L274.895 51.6491L275.392 51.5928L275.104 49.0488L274.607 49.1051ZM274.895 51.6491V52.1491H275.855V51.6491V51.1491H274.895V51.6491ZM275.855 51.6491L276.352 51.5928L276.064 49.0488L275.567 49.1051L275.07 49.1613L275.358 51.7053L275.855 51.6491ZM275.567 49.1051H276.067V24.4811H275.567H275.067V49.1051H275.567ZM275.567 24.4811V24.9811H279.119V24.4811V23.9811H275.567V24.4811ZM279.119 24.4811H278.619V58.0811H279.119H279.619V24.4811H279.119ZM279.119 58.0811V57.5811H273.887V58.0811V58.5811H279.119V58.0811ZM273.887 58.0811L274.373 57.9636L268.421 33.3396L267.935 33.4571L267.449 33.5745L273.401 58.1985L273.887 58.0811ZM267.935 33.4571L268.432 33.4008L268.144 30.8568L267.647 30.9131L267.15 30.9693L267.438 33.5133L267.935 33.4571ZM267.647 30.9131V30.4131H266.687V30.9131V31.4131H267.647V30.9131ZM266.687 30.9131L266.19 30.9693L266.478 33.5133L266.975 33.4571L267.472 33.4008L267.184 30.8568L266.687 30.9131ZM266.975 33.4571H266.475V58.0811H266.975H267.475V33.4571H266.975ZM266.975 58.0811V57.5811H263.423V58.0811V58.5811H266.975V58.0811ZM283.279 46.8011V46.3011H282.779V46.8011H283.279ZM286.831 46.8011H287.331V46.3011H286.831V46.8011ZM297.247 35.1371V35.6371H297.747V35.1371H297.247ZM293.695 35.1371H293.195V35.6371H293.695V35.1371ZM290.335 58.6571V58.1571C288.327 58.1571 286.693 57.531 285.565 56.4691C284.441 55.4098 283.779 53.879 283.779 51.9851H283.279H282.779C282.779 54.1231 283.533 55.9283 284.88 57.1971C286.224 58.4631 288.118 59.1571 290.335 59.1571V58.6571ZM283.279 51.9851H283.779V46.8011H283.279H282.779V51.9851H283.279ZM283.279 46.8011V47.3011H286.831V46.8011V46.3011H283.279V46.8011ZM286.831 46.8011H286.331V51.9371H286.831H287.331V46.8011H286.831ZM286.831 51.9371H286.331C286.331 53.0843 286.72 54.0823 287.439 54.7943C288.158 55.506 289.167 55.8931 290.335 55.8931V55.3931V54.8931C289.391 54.8931 288.648 54.5841 288.142 54.0838C287.637 53.5838 287.331 52.8538 287.331 51.9371H286.831ZM290.335 55.3931V55.8931C291.482 55.8931 292.479 55.5041 293.19 54.7926C293.902 54.0811 294.291 53.0841 294.291 51.9371H293.791H293.291C293.291 52.854 292.984 53.585 292.483 54.0855C291.983 54.586 291.252 54.8931 290.335 54.8931V55.3931ZM293.791 51.9371H294.291V47.7131H293.791H293.291V51.9371H293.791ZM293.791 47.7131H294.291C294.291 46.189 293.535 45.0566 292.499 44.1188C291.482 43.1988 290.124 42.4068 288.852 41.592C286.251 39.9254 283.875 38.0885 283.875 34.5131H283.375H282.875C282.875 38.6657 285.707 40.7647 288.313 42.4341C289.645 43.2873 290.892 44.0133 291.828 44.8603C292.744 45.6895 293.291 46.5731 293.291 47.7131H293.791ZM283.375 34.5131H283.875V30.4811H283.375H282.875V34.5131H283.375ZM283.375 30.4811H283.875C283.875 28.6358 284.524 27.1282 285.632 26.0803C286.743 25.0301 288.353 24.4051 290.335 24.4051V23.9051V23.4051C288.141 23.4051 286.271 24.1 284.945 25.3538C283.617 26.6099 282.875 28.3903 282.875 30.4811H283.375ZM290.335 23.9051V24.4051C292.316 24.4051 293.913 25.0299 295.011 26.0786C296.107 27.1254 296.747 28.6331 296.747 30.4811H297.247H297.747C297.747 28.393 297.018 26.6127 295.702 25.3555C294.388 24.1002 292.529 23.4051 290.335 23.4051V23.9051ZM297.247 30.4811H296.747V35.1371H297.247H297.747V30.4811H297.247ZM297.247 35.1371V34.6371H293.695V35.1371V35.6371H297.247V35.1371ZM293.695 35.1371H294.195V30.5291H293.695H293.195V35.1371H293.695ZM293.695 30.5291H294.195C294.195 29.4074 293.819 28.4339 293.124 27.7395C292.43 27.0451 291.456 26.6691 290.335 26.6691V27.1691V27.6691C291.229 27.6691 291.935 27.965 292.417 28.4466C292.899 28.9282 293.195 29.6347 293.195 30.5291H293.695ZM290.335 27.1691V26.6691C289.192 26.6691 288.207 27.0431 287.505 27.7377C286.803 28.4326 286.427 29.4073 286.427 30.5291H286.927H287.427C287.427 29.6348 287.722 28.9295 288.208 28.4484C288.695 27.967 289.413 27.6691 290.335 27.6691V27.1691ZM286.927 30.5291H286.427V34.1771H286.927H287.427V30.5291H286.927ZM286.927 34.1771H286.427C286.427 35.6906 287.184 36.817 288.219 37.7515C289.235 38.6686 290.593 39.4621 291.864 40.2796C294.466 41.952 296.843 43.8009 296.843 47.3771H297.343H297.843C297.843 43.2252 295.012 41.1141 292.405 39.4385C291.073 38.582 289.826 37.8545 288.889 37.0091C287.972 36.1811 287.427 35.3035 287.427 34.1771H286.927ZM297.343 47.3771H296.843V51.9851H297.343H297.843V47.3771H297.343ZM297.343 51.9851H296.843C296.843 53.8816 296.191 55.4125 295.078 56.4707C293.963 57.5312 292.342 58.1571 290.335 58.1571V58.6571V59.1571C292.551 59.1571 294.434 58.4629 295.767 57.1954C297.102 55.9256 297.843 54.1205 297.843 51.9851H297.343Z" fill="white"/>
</g>
<defs>
<clipPath id="clip0_81_101">
<rect width="299" height="89" fill="white"/>
</clipPath>
</defs>
</svg>
