<svg width="292" height="82" viewBox="0 0 292 82" fill="none" xmlns="http://www.w3.org/2000/svg">
<g clip-path="url(#clip0_3_10)">
<path d="M85.41 80.49C107.286 80.49 125.02 62.6082 125.02 40.55C125.02 18.4917 107.286 0.609985 85.41 0.609985C63.534 0.609985 45.8 18.4917 45.8 40.55C45.8 62.6082 63.534 80.49 85.41 80.49Z" fill="#010101" stroke="#010101" stroke-width="1.21" stroke-miterlimit="10"/>
<path d="M52.21 22.4H0.599976V23.95H52.21V22.4Z" fill="#010101" stroke="#010101" stroke-width="1.21" stroke-miterlimit="10"/>
<path d="M52.82 28.81H0.869995V30.36H52.82V28.81Z" fill="#010101" stroke="#010101" stroke-width="1.21" stroke-miterlimit="10"/>
<path d="M52.62 35.69H1.04999V37.24H52.62V35.69Z" fill="#010101" stroke="#010101" stroke-width="1.2" stroke-miterlimit="10"/>
<path d="M52.82 42.3H1.13995V43.85H52.82V42.3Z" fill="#010101" stroke="#010101" stroke-width="1.21" stroke-miterlimit="10"/>
<path d="M52.55 48.84H0.940002V50.39H52.55V48.84Z" fill="#010101" stroke="#010101" stroke-width="1.21" stroke-miterlimit="10"/>
<path d="M52.48 55.39H0.869995V56.94H52.48V55.39Z" fill="#010101" stroke="#010101" stroke-width="1.21" stroke-miterlimit="10"/>
<path d="M133.25 22.19H119.82V24.01H133.25V22.19Z" fill="#010101" stroke="#010101" stroke-width="1.21" stroke-miterlimit="10"/>
<path d="M132.85 28.87H119.42V30.69H132.85V28.87Z" fill="#010101" stroke="#010101" stroke-width="1.21" stroke-miterlimit="10"/>
<path d="M132.71 35.22H119.28V37.04H132.71V35.22Z" fill="#010101" stroke="#010101" stroke-width="1.21" stroke-miterlimit="10"/>
<path d="M132.92 48.64H119.49V50.46H132.92V48.64Z" fill="#010101" stroke="#010101" stroke-width="1.21" stroke-miterlimit="10"/>
<path d="M132.92 55.19H119.49V57.01H132.92V55.19Z" fill="#010101" stroke="#010101" stroke-width="1.21" stroke-miterlimit="10"/>
<path d="M132.98 42.23H119.55V44.05H132.98V42.23Z" fill="#010101" stroke="#010101" stroke-width="1.21" stroke-miterlimit="10"/>
<path d="M48.78 24.62L122.18 24.76" stroke="#E8E8E8" stroke-width="1.21" stroke-miterlimit="10"/>
<path d="M45.6 37.91L125.22 37.71" stroke="#E8E8E8" stroke-width="1.21" stroke-miterlimit="10"/>
<path d="M45.74 44.59L125.29 44.8" stroke="#E8E8E8" stroke-width="1.21" stroke-miterlimit="10"/>
<path d="M46.55 30.96L124.28 31.37" stroke="#E8E8E8" stroke-width="1.21" stroke-miterlimit="10"/>
<path d="M48.91 57.68H121.64" stroke="#E8E8E8" stroke-width="1.21" stroke-miterlimit="10"/>
<path d="M46.75 51.07L123.94 51.27" stroke="#E8E8E8" stroke-width="1.21" stroke-miterlimit="10"/>
<path d="M4.20996 44.66L9.72996 44.64" stroke="#E8E8E8" stroke-width="1.21" stroke-miterlimit="10"/>
<path d="M144.664 53V30.6H151.768V32.776H147.032V39.848L145.944 40.456V40.584H151.32V42.696H147.032V50.088L145.944 50.696V50.824H151.768V53H144.664ZM154.445 53V30.6H157.933L161.901 47.016L162.093 48.712H162.733L162.541 47.016V30.6H164.909V53H161.421L157.453 36.584L157.261 34.888H156.621L156.813 36.584V53H154.445ZM169.987 53V32.776H167.043V30.6H175.299V32.776H172.355V53H169.987ZM177.445 53V30.6H182.309C185.029 30.6 186.821 32.328 186.821 34.888V39.368C186.821 41.224 185.893 42.632 184.325 43.272L187.173 53H184.741L182.085 43.624H179.813V53H177.445ZM178.725 41.544H182.149C183.525 41.544 184.453 40.616 184.453 39.24V35.08C184.453 33.704 183.525 32.776 182.149 32.776H179.813V40.808L178.725 41.416V41.544ZM189.602 53V30.6H196.706V32.776H191.97V39.848L190.882 40.456V40.584H196.258V42.696H191.97V50.088L190.882 50.696V50.824H196.706V53H189.602ZM206.237 53V32.776H203.293V30.6H211.549V32.776H208.605V53H206.237ZM218.271 53.384C215.455 53.384 213.599 51.624 213.599 48.936V34.632C213.599 31.976 215.455 30.216 218.271 30.216C221.087 30.216 222.943 31.976 222.943 34.632V48.936C222.943 51.624 221.087 53.384 218.271 53.384ZM218.271 51.208C219.647 51.208 220.575 50.28 220.575 48.904V34.696C220.575 33.32 219.647 32.392 218.271 32.392C216.895 32.392 215.967 33.32 215.967 34.696V48.904C215.967 50.28 216.895 51.208 218.271 51.208ZM226.164 53V30.6H229.652L233.62 47.016L233.812 48.712H234.452L234.26 47.016V30.6H236.628V53H233.14L229.172 36.584L228.98 34.888H228.34L228.532 36.584V53H226.164ZM244.105 53.384C241.289 53.384 239.401 51.624 239.401 48.936V45.48H241.769V48.904C241.769 50.28 242.697 51.208 244.105 51.208C245.481 51.208 246.409 50.28 246.409 48.904V46.088C246.409 42.536 239.465 42.44 239.465 37.288V34.6C239.465 31.976 241.321 30.216 244.105 30.216C246.889 30.216 248.713 31.976 248.713 34.6V37.704H246.345V34.632C246.345 33.288 245.449 32.392 244.105 32.392C242.729 32.392 241.833 33.288 241.833 34.632V37.064C241.833 40.584 248.777 40.712 248.777 45.864V48.936C248.777 51.624 246.921 53.384 244.105 53.384Z" fill="#010101"/>
</g>
<defs>
<clipPath id="clip0_3_10">
<rect width="291.41" height="81.09" fill="white"/>
</clipPath>
</defs>
</svg>
