<svg width="134" height="82" viewBox="0 0 134 82" fill="none" xmlns="http://www.w3.org/2000/svg">
<path d="M85.415 80.485C107.291 80.485 125.025 62.6032 125.025 40.545C125.025 18.4867 107.291 0.60498 85.415 0.60498C63.539 0.60498 45.805 18.4867 45.805 40.545C45.805 62.6032 63.539 80.485 85.415 80.485Z" fill="#010101" stroke="#010101" stroke-width="1.21" stroke-miterlimit="10"/>
<path d="M52.215 22.395H0.60498V23.945H52.215V22.395Z" fill="#010101" stroke="#010101" stroke-width="1.21" stroke-miterlimit="10"/>
<path d="M52.825 28.805H0.875V30.355H52.825V28.805Z" fill="#010101" stroke="#010101" stroke-width="1.21" stroke-miterlimit="10"/>
<path d="M52.625 35.685H1.05499V37.235H52.625V35.685Z" fill="#010101" stroke="#010101" stroke-width="1.2" stroke-miterlimit="10"/>
<path d="M52.825 42.295H1.14496V43.845H52.825V42.295Z" fill="#010101" stroke="#010101" stroke-width="1.21" stroke-miterlimit="10"/>
<path d="M52.555 48.835H0.945007V50.385H52.555V48.835Z" fill="#010101" stroke="#010101" stroke-width="1.21" stroke-miterlimit="10"/>
<path d="M52.485 55.385H0.875V56.935H52.485V55.385Z" fill="#010101" stroke="#010101" stroke-width="1.21" stroke-miterlimit="10"/>
<path d="M133.255 22.185H119.825V24.005H133.255V22.185Z" fill="#010101" stroke="#010101" stroke-width="1.21" stroke-miterlimit="10"/>
<path d="M132.855 28.865H119.425V30.685H132.855V28.865Z" fill="#010101" stroke="#010101" stroke-width="1.21" stroke-miterlimit="10"/>
<path d="M132.715 35.215H119.285V37.035H132.715V35.215Z" fill="#010101" stroke="#010101" stroke-width="1.21" stroke-miterlimit="10"/>
<path d="M132.925 48.635H119.495V50.455H132.925V48.635Z" fill="#010101" stroke="#010101" stroke-width="1.21" stroke-miterlimit="10"/>
<path d="M132.925 55.185H119.495V57.005H132.925V55.185Z" fill="#010101" stroke="#010101" stroke-width="1.21" stroke-miterlimit="10"/>
<path d="M132.985 42.225H119.555V44.045H132.985V42.225Z" fill="#010101" stroke="#010101" stroke-width="1.21" stroke-miterlimit="10"/>
<path d="M48.785 24.615L122.185 24.755" stroke="#E8E8E8" stroke-width="1.21" stroke-miterlimit="10"/>
<path d="M45.605 37.905L125.225 37.705" stroke="#E8E8E8" stroke-width="1.21" stroke-miterlimit="10"/>
<path d="M45.745 44.585L125.295 44.795" stroke="#E8E8E8" stroke-width="1.21" stroke-miterlimit="10"/>
<path d="M46.555 30.955L124.285 31.365" stroke="#E8E8E8" stroke-width="1.21" stroke-miterlimit="10"/>
<path d="M48.915 57.675H121.645" stroke="#E8E8E8" stroke-width="1.21" stroke-miterlimit="10"/>
<path d="M46.755 51.065L123.945 51.265" stroke="#E8E8E8" stroke-width="1.21" stroke-miterlimit="10"/>
<path d="M4.21497 44.655L9.73497 44.635" stroke="#E8E8E8" stroke-width="1.21" stroke-miterlimit="10"/>
</svg>
