<svg width="106" height="106" viewBox="0 0 106 106" fill="none" xmlns="http://www.w3.org/2000/svg">
<path d="M6.625 18.7355C12.4881 16.2843 20.8953 13.6409 29.0705 12.8194C37.8818 11.9317 45.3548 13.2368 49.6875 17.8014V82.3687C43.4931 78.8574 35.6425 78.3738 28.4014 79.1025C20.5839 79.8975 12.7001 82.1567 6.625 84.4754V18.7355ZM56.3125 17.8014C60.6452 13.2368 68.1183 11.9317 76.9295 12.8194C85.1048 13.6409 93.5119 16.2843 99.375 18.7355V84.4754C93.2933 82.1567 85.4161 79.8909 77.5986 79.1092C70.3509 78.3738 62.5069 78.8508 56.3125 82.3687V17.8014ZM53 11.8124C46.4744 6.20103 37.0139 5.36628 28.4014 6.22753C18.3711 7.24116 8.24813 10.6795 1.94113 13.5482C1.36242 13.8114 0.871686 14.2355 0.527489 14.77C0.183292 15.3045 0.000176036 15.9268 0 16.5625L0 89.4375C0.000153448 89.9918 0.139371 90.5371 0.404901 91.0236C0.67043 91.5101 1.05378 91.9222 1.51985 92.2221C1.98591 92.5221 2.51978 92.7003 3.07256 92.7404C3.62535 92.7806 4.17937 92.6814 4.68388 92.4519C10.5271 89.8019 19.9412 86.6153 29.0639 85.6944C38.3985 84.7537 46.2226 86.2708 50.4163 91.5045C50.7266 91.8914 51.1199 92.2037 51.5671 92.4182C52.0143 92.6328 52.504 92.7441 53 92.7441C53.496 92.7441 53.9857 92.6328 54.4329 92.4182C54.8801 92.2037 55.2734 91.8914 55.5838 91.5045C59.7774 86.2708 67.6015 84.7537 76.9295 85.6944C86.0588 86.6153 95.4795 89.8019 101.316 92.4519C101.821 92.6814 102.375 92.7806 102.927 92.7404C103.48 92.7003 104.014 92.5221 104.48 92.2221C104.946 91.9222 105.33 91.5101 105.595 91.0236C105.861 90.5371 106 89.9918 106 89.4375V16.5625C106 15.9268 105.817 15.3045 105.473 14.77C105.128 14.2355 104.638 13.8114 104.059 13.5482C97.7519 10.6795 87.6289 7.24116 77.5986 6.22753C68.9861 5.35966 59.5256 6.20103 53 11.8124Z" fill="black"/>
</svg>
